<svg xmlns="http://www.w3.org/2000/svg" xmlns:xlink="http://www.w3.org/1999/xlink" version="1.1" id="Capa_1" x="0px" y="0px" viewBox="0 0 512.001 512.001" style="enable-background:new 0 0 512.001 512.001;" xml:space="preserve"><g><g><g><path d="M285,372.003H120c-22.056,0-40-17.944-40-40v-26c0-11.046-8.954-20-20-20H40v-60h20c11.046,0,20-8.954,20-20v-26 c0-1.573,0.091-3.149,0.27-4.685c1.279-10.972-6.578-20.903-17.55-22.181c-10.974-1.279-20.903,6.578-22.181,17.55 c-0.357,3.067-0.539,6.202-0.539,9.315v6h-5.714C15.381,186.002,0,201.382,0,220.287v71.429 c0,18.905,15.381,34.286,34.286,34.286H40v6c0,44.112,35.888,80,80,80h165c11.046,0,20-8.954,20-20S296.046,372.002,285,372.003z "/><path d="M506.143,477.859l-66.25-66.25C480.314,407.632,512,373.451,512,332.002c0-11.046-8.954-20-20-20 c-11.046,0-20,8.954-20,20c0,22.056-17.944,40-40,40h-31.715l-232-232H432c22.056,0,40,17.944,40,40v52c0,11.046,8.954,20,20,20 c11.046,0,20-8.954,20-20v-52c0-44.112-35.888-80-80-80H128.286L34.143,5.859c-7.811-7.811-20.475-7.811-28.285,0 c-7.81,7.811-7.811,20.475,0,28.285l472,472c3.905,3.905,9.024,5.857,14.143,5.857s10.237-1.952,14.143-5.857 C513.954,498.334,513.954,485.67,506.143,477.859z"/></g></g></g><g></g><g></g><g></g><g></g><g></g><g></g><g></g><g></g><g></g><g></g><g></g><g></g><g></g><g></g><g></g></svg>